# xmcd CD database file
# Copyright (C) 1997 Ti Kan
# 
# Track frame offsets:
#     150
#     24125
#     54530
#     80260
#     104175
#     129067
#     147177
#     176957
# 
# Disc length: 2621 seconds
# 
# Revision: 1
# Processed by: cddbd v1.4b41PL1 Copyright (c) Steve Scherf et al.
# Submitted via: DiscPlay 4.0.4
# 
DISCID=640a3b08
DTITLE=Cesar Camargo Mariano - Ponte das estrelas
DYEAR=1900
DGENRE=
TTITLE0=Guai  
TTITLE1=Saudades dos avi es da Panair/Conversando no bar/Ponta de areia
TTITLE2=Xique-xique
TTITLE3=Volto j 
TTITLE4=Don Quixote
TTITLE5=Merda
TTITLE6=Sabi 
TTITLE7=Imagine
EXTD=
EXTT0=
EXTT1=
EXTT2=
EXTT3=
EXTT4=
EXTT5=
EXTT6=
EXTT7=
PLAYORDER=
